# xmcd
#
# Track frame offsets: 
#        150
#        14234
#        36096
#        46465
#        66688
#        82553
#        99147
#        115705
#        127751
#        151826
#        166391
#        193006
#        212564
#        233476
#        250306
#        274969
#        290648
#        317702
#        331698
#
# Disc length: 4814 seconds
#
# Revision: 0
# Processed by: cddbd v1.4PL0 Copyright (c) Steve Scherf et al.
# Submitted via: ExactAudioCopy v0.95a3
#
DISCID=0112cc13
DTITLE=Cesaria Evora - Cesaria Evora CD1
DYEAR=1900
DGENRE=
TTITLE0=Nutridinha
TTITLE1=Besame mucho
TTITLE2=Quem bo e
TTITLE3=Fruto proibido
TTITLE4=Cinturao tem mele
TTITLE5=Nho antone escaderode
TTITLE6=Sodade
TTITLE7=Estanfadinha
TTITLE8=Tchintchuro
TTITLE9=Tempo y silencio
TTITLE10=Mar e morada
TTITLE11=Novasintra
TTITLE12=Saboer de pecado
TTITLE13=Petit pays
TTITLE14=Chepuscular
TTITLE15=Regresso
TTITLE16=Juaquim paris
TTITLE17=Sabine largam
TTITLE18=Ingrata
EXTD=
EXTT0=
EXTT1=
EXTT2=
EXTT3=
EXTT4=
EXTT5=
EXTT6=
EXTT7=
EXTT8=
EXTT9=
EXTT10=
EXTT11=
EXTT12=
EXTT13=
EXTT14=
EXTT15=
EXTT16=
EXTT17=
EXTT18=
PLAYORDER=
